<svg width="800" height="800" viewBox="0 0 800 800" xmlns="http://www.w3.org/2000/svg">
  <rect width="800" height="800" fill="#f8f6f0"/>
  
  <!-- Title text -->
  <text x="50" y="50" font-family="Times New Roman" font-size="20" fill="black" font-weight="bold">12. Spiral Galaxy</text>
  <text x="50" y="75" font-family="Times New Roman" font-size="16" fill="black">[SYMBOL]</text>
  <text x="50" y="100" font-family="Times New Roman" font-size="14" fill="black">Aquarius</text>
  
  <!-- Main Spiral Structure centered -->
  <g transform="translate(400,400)">
    
    <!-- Outer spiral staff lines -->
    <!-- Staff line 1 (outermost) -->
    <path d="M 0,-320 Q 180,-280 280,-160 Q 320,0 280,160 Q 140,280 -140,240 Q -280,40 -240,-120 Q -60,-240 120,-200 Q 200,-60 180,60 Q 100,140 0,120 Q -100,80 -80,0 Q -40,-60 40,-50 Q 60,-20 50,20 Q 20,40 0,30" 
          stroke="black" stroke-width="1.5" fill="none"/>
    <!-- Staff line 2 -->
    <path d="M 0,-310 Q 175,-270 270,-150 Q 310,0 270,150 Q 135,270 -135,230 Q -270,35 -230,-115 Q -55,-230 115,-190 Q 190,-55 175,55 Q 95,135 0,115 Q -95,75 -75,0 Q -35,-55 35,-45 Q 55,-15 45,15 Q 15,35 0,25" 
          stroke="black" stroke-width="1.5" fill="none"/>
    <!-- Staff line 3 -->
    <path d="M 0,-300 Q 170,-260 260,-140 Q 300,0 260,140 Q 130,260 -130,220 Q -260,30 -220,-110 Q -50,-220 110,-180 Q 180,-50 170,50 Q 90,130 0,110 Q -90,70 -70,0 Q -30,-50 30,-40 Q 50,-10 40,10 Q 10,30 0,20" 
          stroke="black" stroke-width="1.5" fill="none"/>
    <!-- Staff line 4 -->
    <path d="M 0,-290 Q 165,-250 250,-130 Q 290,0 250,130 Q 125,250 -125,210 Q -250,25 -210,-105 Q -45,-210 105,-170 Q 170,-45 165,45 Q 85,125 0,105 Q -85,65 -65,0 Q -25,-45 25,-35 Q 45,-5 35,5 Q 5,25 0,15" 
          stroke="black" stroke-width="1.5" fill="none"/>
    <!-- Staff line 5 -->
    <path d="M 0,-280 Q 160,-240 240,-120 Q 280,0 240,120 Q 120,240 -120,200 Q -240,20 -200,-100 Q -40,-200 100,-160 Q 160,-40 160,40 Q 80,120 0,100 Q -80,60 -60,0 Q -20,-40 20,-30 Q 40,0 30,0 Q 0,20 0,10" 
          stroke="black" stroke-width="1.5" fill="none"/>

    <!-- Inner spiral staff lines -->
    <!-- Staff line 6 -->
    <path d="M 0,-200 Q 120,-170 180,-100 Q 200,0 180,100 Q 80,170 -80,150 Q -180,20 -150,-80 Q -30,-150 80,-120 Q 120,-30 120,30 Q 60,90 0,80 Q -60,50 -50,0 Q -15,-30 15,-25 Q 25,-5 20,5 Q 5,15 0,10" 
          stroke="black" stroke-width="1.5" fill="none"/>
    <!-- Staff line 7 -->
    <path d="M 0,-190 Q 115,-160 170,-90 Q 190,0 170,90 Q 75,160 -75,140 Q -170,15 -140,-75 Q -25,-140 75,-110 Q 115,-25 115,25 Q 55,85 0,75 Q -55,45 -45,0 Q -10,-25 10,-20 Q 20,0 15,0 Q 0,10 0,5" 
          stroke="black" stroke-width="1.5" fill="none"/>
    <!-- Staff line 8 -->
    <path d="M 0,-180 Q 110,-150 160,-80 Q 180,0 160,80 Q 70,150 -70,130 Q -160,10 -130,-70 Q -20,-130 70,-100 Q 110,-20 110,20 Q 50,80 0,70 Q -50,40 -40,0 Q -5,-20 5,-15 Q 15,5 10,-5 Q -5,5 0,0" 
          stroke="black" stroke-width="1.5" fill="none"/>
    <!-- Staff line 9 -->
    <path d="M 0,-170 Q 105,-140 150,-70 Q 170,0 150,70 Q 65,140 -65,120 Q -150,5 -120,-65 Q -15,-120 65,-90 Q 105,-15 105,15 Q 45,75 0,65 Q -45,35 -35,0 Q 0,-15 0,-10 Q 10,10 5,-10 Q -10,0 0,-5" 
          stroke="black" stroke-width="1.5" fill="none"/>
    <!-- Staff line 10 (innermost) -->
    <path d="M 0,-160 Q 100,-130 140,-60 Q 160,0 140,60 Q 60,130 -60,110 Q -140,0 -110,-60 Q -10,-110 60,-80 Q 100,-10 100,10 Q 40,70 0,60 Q -40,30 -30,0 Q 5,-10 -5,-5 Q 5,15 0,-15 Q -15,-5 0,-10" 
          stroke="black" stroke-width="1.5" fill="none"/>

    <!-- Musical notes on the staff lines -->
    <!-- Outer spiral notes -->
    <g fill="black">
      <!-- Quarter notes -->
      <ellipse cx="60" cy="-300" rx="3" ry="2" transform="rotate(-20 60 -300)"/>
      <line x1="63" y1="-300" x2="63" y2="-280" stroke="black" stroke-width="1"/>
      
      <ellipse cx="120" cy="-250" rx="3" ry="2" transform="rotate(-30 120 -250)"/>
      <line x1="123" y1="-250" x2="123" y2="-230" stroke="black" stroke-width="1"/>
      
      <ellipse cx="180" cy="-180" rx="3" ry="2" transform="rotate(-45 180 -180)"/>
      <line x1="183" y1="-180" x2="183" y2="-160" stroke="black" stroke-width="1"/>
      
      <ellipse cx="220" cy="-100" rx="3" ry="2" transform="rotate(-60 220 -100)"/>
      <line x1="223" y1="-100" x2="223" y2="-80" stroke="black" stroke-width="1"/>
      
      <ellipse cx="240" cy="-20" rx="3" ry="2" transform="rotate(-75 240 -20)"/>
      <line x1="243" y1="-20" x2="243" y2="0" stroke="black" stroke-width="1"/>
      
      <ellipse cx="230" cy="60" rx="3" ry="2" transform="rotate(-90 230 60)"/>
      <line x1="233" y1="60" x2="233" y2="80" stroke="black" stroke-width="1"/>
      
      <ellipse cx="200" cy="130" rx="3" ry="2" transform="rotate(-105 200 130)"/>
      <line x1="203" y1="130" x2="203" y2="150" stroke="black" stroke-width="1"/>
      
      <ellipse cx="150" cy="180" rx="3" ry="2" transform="rotate(-120 150 180)"/>
      <line x1="153" y1="180" x2="153" y2="200" stroke="black" stroke-width="1"/>
      
      <ellipse cx="80" cy="210" rx="3" ry="2" transform="rotate(-135 80 210)"/>
      <line x1="83" y1="210" x2="83" y2="230" stroke="black" stroke-width="1"/>
      
      <ellipse cx="0" cy="220" rx="3" ry="2" transform="rotate(-150 0 220)"/>
      <line x1="3" y1="220" x2="3" y2="240" stroke="black" stroke-width="1"/>
      
      <ellipse cx="-80" cy="200" rx="3" ry="2" transform="rotate(-165 -80 200)"/>
      <line x1="-77" y1="200" x2="-77" y2="220" stroke="black" stroke-width="1"/>
      
      <ellipse cx="-150" cy="160" rx="3" ry="2" transform="rotate(-180 -150 160)"/>
      <line x1="-147" y1="160" x2="-147" y2="180" stroke="black" stroke-width="1"/>
      
      <ellipse cx="-200" cy="100" rx="3" ry="2" transform="rotate(165 -200 100)"/>
      <line x1="-197" y1="100" x2="-197" y2="120" stroke="black" stroke-width="1"/>
      
      <ellipse cx="-220" cy="20" rx="3" ry="2" transform="rotate(150 -220 20)"/>
      <line x1="-217" y1="20" x2="-217" y2="40" stroke="black" stroke-width="1"/>
      
      <ellipse cx="-210" cy="-60" rx="3" ry="2" transform="rotate(135 -210 -60)"/>
      <line x1="-207" y1="-60" x2="-207" y2="-40" stroke="black" stroke-width="1"/>
      
      <ellipse cx="-170" cy="-130" rx="3" ry="2" transform="rotate(120 -170 -130)"/>
      <line x1="-167" y1="-130" x2="-167" y2="-110" stroke="black" stroke-width="1"/>
      
      <ellipse cx="-100" cy="-180" rx="3" ry="2" transform="rotate(105 -100 -180)"/>
      <line x1="-97" y1="-180" x2="-97" y2="-160" stroke="black" stroke-width="1"/>
      
      <ellipse cx="-20" cy="-200" rx="3" ry="2" transform="rotate(90 -20 -200)"/>
      <line x1="-17" y1="-200" x2="-17" y2="-180" stroke="black" stroke-width="1"/>
    </g>

    <!-- Inner spiral notes -->
    <g fill="black">
      <ellipse cx="40" cy="-160" rx="3" ry="2" transform="rotate(-15 40 -160)"/>
      <line x1="43" y1="-160" x2="43" y2="-140" stroke="black" stroke-width="1"/>
      
      <ellipse cx="80" cy="-130" rx="3" ry="2" transform="rotate(-30 80 -130)"/>
      <line x1="83" y1="-130" x2="83" y2="-110" stroke="black" stroke-width="1"/>
      
      <ellipse cx="110" cy="-90" rx="3" ry="2" transform="rotate(-45 110 -90)"/>
      <line x1="113" y1="-90" x2="113" y2="-70" stroke="black" stroke-width="1"/>
      
      <ellipse cx="130" cy="-40" rx="3" ry="2" transform="rotate(-60 130 -40)"/>
      <line x1="133" y1="-40" x2="133" y2="-20" stroke="black" stroke-width="1"/>
      
      <ellipse cx="135" cy="10" rx="3" ry="2" transform="rotate(-75 135 10)"/>
      <line x1="138" y1="10" x2="138" y2="30" stroke="black" stroke-width="1"/>
      
      <ellipse cx="120" cy="60" rx="3" ry="2" transform="rotate(-90 120 60)"/>
      <line x1="123" y1="60" x2="123" y2="80" stroke="black" stroke-width="1"/>
      
      <ellipse cx="90" cy="100" rx="3" ry="2" transform="rotate(-105 90 100)"/>
      <line x1="93" y1="100" x2="93" y2="120" stroke="black" stroke-width="1"/>
      
      <ellipse cx="50" cy="125" rx="3" ry="2" transform="rotate(-120 50 125)"/>
      <line x1="53" y1="125" x2="53" y2="145" stroke="black" stroke-width="1"/>
      
      <ellipse cx="0" cy="135" rx="3" ry="2" transform="rotate(-135 0 135)"/>
      <line x1="3" y1="135" x2="3" y2="155" stroke="black" stroke-width="1"/>
      
      <ellipse cx="-50" cy="120" rx="3" ry="2" transform="rotate(-150 -50 120)"/>
      <line x1="-47" y1="120" x2="-47" y2="140" stroke="black" stroke-width="1"/>
      
      <ellipse cx="-90" cy="90" rx="3" ry="2" transform="rotate(-165 -90 90)"/>
      <line x1="-87" y1="90" x2="-87" y2="110" stroke="black" stroke-width="1"/>
      
      <ellipse cx="-110" cy="40" rx="3" ry="2" transform="rotate(180 -110 40)"/>
      <line x1="-107" y1="40" x2="-107" y2="60" stroke="black" stroke-width="1"/>
      
      <ellipse cx="-115" cy="-10" rx="3" ry="2" transform="rotate(165 -115 -10)"/>
      <line x1="-112" y1="-10" x2="-112" y2="10" stroke="black" stroke-width="1"/>
      
      <ellipse cx="-100" cy="-60" rx="3" ry="2" transform="rotate(150 -100 -60)"/>
      <line x1="-97" y1="-60" x2="-97" y2="-40" stroke="black" stroke-width="1"/>
      
      <ellipse cx="-70" cy="-100" rx="3" ry="2" transform="rotate(135 -70 -100)"/>
      <line x1="-67" y1="-100" x2="-67" y2="-80" stroke="black" stroke-width="1"/>
      
      <ellipse cx="-30" cy="-125" rx="3" ry="2" transform="rotate(120 -30 -125)"/>
      <line x1="-27" y1="-125" x2="-27" y2="-105" stroke="black" stroke-width="1"/>
    </g>

    <!-- Additional musical symbols -->
    <!-- Clef symbols -->
    <g font-family="Times New Roman" font-size="20" fill="black">
      <text x="30" y="-290" transform="rotate(-20 30 -290)">♪</text>
      <text x="-80" y="140" transform="rotate(160 -80 140)">♫</text>
      <text x="90" y="80" transform="rotate(-100 90 80)">♪</text>
      <text x="-120" y="-40" transform="rotate(140 -120 -40)">♫</text>
    </g>

    <!-- Time signatures -->
    <g font-family="Times New Roman" font-size="12" fill="black">
      <text x="100" y="-280" transform="rotate(-30 100 -280)">4</text>
      <text x="100" y="-270" transform="rotate(-30 100 -270)">4</text>
      
      <text x="-60" y="180" transform="rotate(150 -60 180)">3</text>
      <text x="-60" y="190" transform="rotate(150 -60 190)">4</text>
    </g>

    <!-- Rests -->
    <g font-family="Times New Roman" font-size="16" fill="black">
      <text x="160" y="-140" transform="rotate(-40 160 -140)">♩</text>
      <text x="-40" y="160" transform="rotate(140 -40 160)">♪</text>
      <text x="60" y="30" transform="rotate(-80 60 30)">♫</text>
    </g>

    <!-- Center point - where bio will appear -->
    <circle cx="0" cy="0" r="12" fill="black" opacity="0.2"/>
    <circle cx="0" cy="0" r="6" fill="white" opacity="0.8"/>
  </g>
  
  <!-- Bottom attribution -->
  <text x="580" y="780" font-family="Times New Roman" font-size="14" fill="black">Media, Pennsylvania 1972</text>
  
  <!-- Page number -->
  <text x="750" y="30" font-family="Times New Roman" font-size="16" fill="black">19</text>
</svg>
